<?xml version="1.0" encoding="UTF-8"?><!DOCTYPE svg PUBLIC "-//W3C//DTD SVG 1.1//EN" "http://www.w3.org/Graphics/SVG/1.1/DTD/svg11.dtd"><svg xmlns="http://www.w3.org/2000/svg" xmlns:xlink="http://www.w3.org/1999/xlink"><symbol id="SEDONA"><g fill="none"><path d="M54.5 53c0 .5-.1.9-.1 1.3-.5 4-1.8 7.9-3.9 11.5-2.1 3.6-5 6.4-8.5 8.4-1.3.6-2.7 1.1-4.1 1.6-1.4.4-2.8.8-4.2 1.1-1.2.2-2.3.4-3.5.5-1.2.1-2.3.2-3.4.2h-1.2c-4.6-.2-9.2-1.2-13.7-3.1-4.4-2-8.4-4.5-11.9-7.7l9.3-14.9.2.2.2.2c2.1 2.3 4.5 4.5 7.1 6.4 2.6 1.9 5.7 3 9.1 3.2.1 0 .2 0 .3.1.1 0 .2.1.3.1.1 0 .2 0 .3.1.1 0 .2.1.3.1.3 0 .6 0 1-.1.3 0 .7-.1 1-.2 1.2-.2 2.4-.7 3.5-1.4s2-1.5 2.6-2.6c.1-.2.2-.3.2-.5.1-.2.2-.3.2-.5.2-.5.3-1 .3-1.5.1-.5.1-.9.1-1.3 0-2.1-.9-3.9-2.7-5.3-1.8-1.4-3.8-2.5-5.9-3.3-.9-.3-1.7-.6-2.4-.8-.8-.2-1.5-.4-2.2-.5-.1 0-.2 0-.2-.1-.1 0-.2-.1-.2-.1-3.8-.9-7.4-2.4-10.7-4.5-3.3-2.1-5.6-5-6.9-8.9l-.6-2.4c-.2-.9-.3-1.7-.4-2.7-.1-.3-.1-.6-.1-.9v-.9c0-.6 0-1.2.1-1.9 0-.6.1-1.2.3-1.9.2-1.5.6-3.1 1.2-4.6.5-1.5 1.2-2.9 2.1-4.2 2.5-4.1 5.7-7 9.6-8.8C20.7.9 24.8 0 29 0c1 0 2 .1 3.1.2 1 .1 2.1.3 3.2.4 2.8.5 5.6 1.2 8.3 2.3 2.7 1.1 5.3 2.4 7.6 3.8L44.8 21c-2.1-1.5-4.3-2.9-6.6-4.1-2.3-1.2-4.8-1.7-7.5-1.7h-1c-1.8.2-3.4 1-5 2.4-1.5 1.4-2.3 2.8-2.3 4.4 0 .2 0 .5.1.7 0 .2.1.5.3.7.2.5.4 1 .8 1.5s.8.9 1.3 1.3c.9.7 2.1 1.3 3.7 1.9 1.6.6 3.3 1.1 5.1 1.7 1.5.4 2.9.8 4.3 1.1 1.4.3 2.6.7 3.5 1 4.3 1.5 7.6 4.1 9.8 7.7 2.2 3.6 3.3 7.4 3.4 11.4v.5c-.1.5-.1 1-.2 1.5Zm60 6.2v16.6H69.1v-74h45.4V18H89v12.9h24v15.8H89v12.5h25.5Zm76.6-2.9c-2.4 5.1-5.8 9.3-10.3 12.5-3.6 2.5-7.6 4.2-11.8 5.1-4.3.9-8.6 1.5-12.9 1.7-1.2.1-2.5.1-3.7.1h-23.8v-74h25.1c1.2 0 2.4 0 3.5.1 4.2.2 8.3.8 12.4 1.7 4.1.9 7.8 2.6 11.2 5.1 4.3 3 7.7 7 10.1 12 2.4 5 3.8 10.1 4.1 15.3.1.5.1.9.1 1.4v3c-.3 5.6-1.6 10.9-4 16ZM174.7 38c0-.3 0-.6-.1-.9-.2-2.9-.9-5.8-2.1-8.5-1.2-2.7-2.9-4.9-5.1-6.6-1.6-1.3-3.4-2.2-5.4-2.7-2-.5-4-.7-6.1-.8h-7.5v40.8c.2 0 .5 0 .8.1.3 0 .5.1.8.1.3 0 .6 0 .8.1.2 0 .5.1.7.1.8 0 1.6 0 2.4-.1.9 0 1.7-.1 2.4-.2 2-.2 4-.5 5.9-1 1.9-.5 3.7-1.4 5.2-2.4 2.5-1.8 4.3-4.2 5.5-7.3 1.2-3.1 1.8-6.3 1.8-9.6V38Zm109.6 3.9c0 .8-.1 1.6-.3 2.4-.2 1.6-.4 3.2-.9 4.8-.4 1.6-1 3.2-1.6 4.7-3.3 7.5-8.3 13.3-15.2 17.5-6.9 4.1-14.1 6.2-21.7 6.2-.5 0-1.1 0-1.6-.1-.5 0-1-.1-1.6-.1-2.6-.2-5.2-.7-7.8-1.4-2.6-.7-5.1-1.7-7.5-2.9-6.5-3.4-11.6-8.3-15.3-14.6-3.7-6.3-5.6-12.9-5.6-19.7 0-1 0-2 .1-3s.2-2.1.5-3.1c.4-2 .9-4 1.6-6.1.7-2 1.5-4 2.6-5.9 3.6-6.6 8.5-11.6 14.9-15.1 6.3-3.5 13-5.2 19.9-5.2.9 0 1.9 0 2.8.1 1 .1 1.9.2 2.8.2 2.9.4 5.7 1.1 8.5 2.1s5.5 2.3 8.1 3.9c5.5 3.6 9.8 8.3 12.8 14.2 3 5.9 4.5 12.1 4.5 18.5v2.6Zm-20.2-4.2c0-.5-.1-.9-.1-1.4-.4-3.3-1.4-6.5-3-9.6-1.6-3.1-3.9-5.5-6.7-7.2-.8-.4-1.5-.7-2.3-1-.8-.3-1.5-.6-2.3-.8-.8-.2-1.5-.3-2.3-.4-.8-.1-1.5-.2-2.3-.2-3.9 0-7.6 1.2-10.9 3.7-3.3 2.5-5.7 5.8-7 9.9-.1.2-.1.3-.2.5 0 .2-.1.3-.1.5l-.6 2.1c-.2.7-.3 1.5-.5 2.3-.1.5-.1 1.1-.2 1.6 0 .5-.1 1-.1 1.6v.9c0 .3 0 .6.1.9.2 4.1 1.5 8 3.8 11.7 2.3 3.7 5.4 6.1 9.5 7.3.5.2.9.3 1.4.4l1.5.3c.5.1.9.1 1.4.2.5 0 .9.1 1.4.1 4.1 0 7.8-1.2 11.1-3.7 3.3-2.4 5.7-5.7 7.1-9.8l.6-2.4c.2-.9.3-1.7.4-2.6.1-.5.1-1.1.2-1.6 0-.5.1-1 .1-1.5v-1.8Zm87.5 38.1-28.1-38.2c-.8-.9-1.5-2-2.2-3.3-.7-1.3-1.4-2.6-2-4-.5-1-.9-2-1.3-3s-.8-1.9-1.2-2.7c.4 2.4.7 4.8.9 7.3.2 2.5.3 5 .3 7.4v36.5h-19.5v-74H318l27.9 38c.7 1.1 1.4 2.2 2 3.4.7 1.2 1.3 2.4 1.9 3.7.5 1 .9 2 1.4 3 .5 1 .9 2 1.4 2.9-.1-.9-.2-1.7-.3-2.4L352 48c-.2-1.5-.3-3.1-.3-4.8-.1-1.6-.1-3.3-.1-5V1.9H371v74h-19.4v-.1Zm85.1 0L433 62.5h-28.6l-3.8 13.4h-20l25.4-74h25.2l25.7 74h-20.2v-.1Zm-15.5-52.1c-.4-1.2-.8-2.4-1.1-3.7-.3-1.3-.6-2.5-.9-3.8-.2-.5-.3-.9-.3-1.3-.1-.4-.2-.8-.2-1.2l-.3 1.2c-.1.4-.2.9-.3 1.3-.1.2-.1.3-.1.4 0 .1 0 .3-.1.4-.2 1.2-.5 2.3-.8 3.4l-.9 3.3-7.5 24.5h20.1l-7.6-24.5Z" fill="#fff"/></g></symbol><symbol id="Vector (1)"><g fill="none"><path fill-rule="evenodd" clip-rule="evenodd" d="M23.45.948c.166-.546 0-.948-.795-.948H20.03c-.668 0-.976.347-1.143.73 0 0-1.335 3.196-3.226 5.272-.612.602-.89.793-1.224.793-.167 0-.418-.191-.418-.738V.948c0-.656-.184-.948-.74-.948H9.151c-.417 0-.668.304-.668.593 0 .621.946.765 1.043 2.513v3.798c0 .833-.153.984-.487.984-.89 0-3.055-3.211-4.34-6.885C4.45.288 4.198 0 3.527 0H.9C.15 0 0 .347 0 .73c0 .682.89 4.07 4.145 8.551C6.315 12.341 9.37 14 12.153 14c1.669 0 1.875-.368 1.875-1.003v-2.313c0-.737.158-.884.687-.884.39 0 1.057.192 2.615 1.667C19.11 13.216 19.403 14 20.405 14h2.625c.75 0 1.126-.368.91-1.096-.238-.724-1.088-1.775-2.215-3.022-.612-.71-1.53-1.475-1.809-1.858-.389-.491-.278-.71 0-1.147 0 0 3.2-4.426 3.533-5.929h.001Z" fill="#fff"/></g></symbol><symbol id="Vector"><g fill="none"><path d="m21.44 1.622-3.17 14.944c-.239 1.055-.862 1.317-1.748.82l-4.828-3.557-2.33 2.24c-.258.259-.473.474-.97.474l.347-4.917 8.948-8.086c.39-.347-.084-.54-.604-.192L6.022 10.314 1.26 8.823C.224 8.5.205 7.787 1.476 7.29L20.103.113c.863-.323 1.617.192 1.336 1.51Z" fill="#fff"/></g></symbol><symbol id="advantages-decor" viewBox="0 0 772 38"><path style="stroke:none;fill-rule:evenodd;fill:#fff;fill-opacity:1" d="M0 0h386v37.227ZM772 0H386v37.227Zm0 0"/></symbol><symbol id="decor-desc"><g fill="none"><path d="M249.6 23.7 0 0v57h600L249.6 0v23.7ZM950.4 23.7V0L600 57h599.9V0L950.4 23.7Z" fill="#fff"/></g></symbol><symbol id="decor-mobile"><g fill="none"><mask id="a" style="mask-type:alpha" maskUnits="userSpaceOnUse" x="0" y="0" width="320" height="57"><path fill="#C4C4C4" d="M0 0h320v57H0z"/></mask><g mask="url(#a)" fill="#fff"><path d="M-190.171 23.7-440 0v57h600.55L-190.171 0v23.7ZM511.271 23.7V0L160.55 57H761V0L511.271 23.7Z"/></g></g></symbol><symbol id="decor-tab"><g fill="none"><mask id="a" style="mask-type:alpha" maskUnits="userSpaceOnUse" x="0" y="0" width="768" height="57"><path fill="#C4C4C4" d="M0 0h768v57H0z"/></mask><g mask="url(#a)" fill="#fff"><path d="M33.6 23.7-216 0v57h600L33.6 0v23.7ZM734.4 23.7V0L384 57h599.9V0L734.4 23.7Z"/></g></g></symbol><symbol id="form-separator"><g fill="none"><path fill="#DBDBDB" d="M0 0h672v1H0z"/></g></symbol><symbol id="htmlacademy-logo"><g fill="none"><path d="M13.6 0h-.1L0 1.4v24.7l13.5 8 13.4-8V1.4L13.6 0ZM25 12.1 13.5 5.3v-.1h-.1l-.1-.1v.1L1.9 12.1v-9l11.5-1.2L25 3.1v9ZM13.4 6.8l11.5 6.7-4.5 2.6-7.1-4.2v1.4l5.9 3.5-.9.5-5-3v1.4l3.8 2.3-.8.5-3-1.8v1.4l1.9 1.1-1.8 1.1L2 13.6l11.4-6.8ZM1.9 15.1l11.4 6.8v1l-7.9-4.7v1.4l8 4.8v1.1l-8-4.7v1.4l8 4.8 8.1-4.9v-5.2l3.4-2v10l-11.5 6.9L1.9 25v-9.9Z" fill="#000"/></g></symbol><symbol id="icon-burger"><g fill="none"><path d="M71.711 45.332H4.29C1.895 45.332 0 47.303 0 49.57v3.45c0 2.266 1.895 4.138 4.289 4.138h.997v.986c0 5.42 4.488 9.756 9.874 9.756h45.68c5.486 0 9.874-4.435 9.874-9.756v-.986h.997c2.294 0 4.289-1.872 4.289-4.237v-3.45c0-2.168-1.895-4.139-4.289-4.139Zm-3.89 12.812c0 3.745-3.091 6.8-6.881 6.8H15.06c-3.79 0-6.882-3.055-6.882-6.8v-.986h59.644v.986Zm5.187-5.223c0 .69-.599 1.28-1.297 1.28H4.29c-.698 0-1.297-.59-1.297-1.28v-3.45c0-.59.599-1.182 1.297-1.182H71.81c.698 0 1.297.591 1.297 1.281v3.35h-.1ZM16.157 37.35l5.386 3.941 5.486-3.941 5.485 3.941L38 37.35l5.386 3.941 5.485-3.941 5.486 3.941 5.486-3.941 5.485 3.941 6.284-4.631-1.696-2.365-4.588 3.252-5.485-3.942-5.486 3.942-5.486-3.942-5.485 3.942L38 33.605l-5.486 3.942-5.485-3.942-5.486 3.942-5.386-3.942-5.485 3.942-4.588-3.252-1.795 2.365 6.383 4.632 5.485-3.942ZM70.714 30.649c0-.592.1-2.563 0-2.957C70.016 12.32 55.654 0 38 0 20.346 0 5.884 12.319 5.186 27.692v2.957h65.528ZM38 2.956c15.958 0 29.123 11.038 29.722 24.736H8.178C8.877 13.994 22.042 2.956 38 2.956Z" fill="#81B3D2"/><path d="M38 16.753a1.983 1.983 0 0 0 1.995-1.97A1.983 1.983 0 0 0 38 12.81a1.983 1.983 0 0 0-1.995 1.971c0 1.089.893 1.971 1.995 1.971ZM30.021 11.924a1.983 1.983 0 0 0 1.995-1.971 1.983 1.983 0 0 0-1.995-1.97 1.983 1.983 0 0 0-1.995 1.97c0 1.089.893 1.971 1.995 1.971ZM45.979 11.924a1.983 1.983 0 0 0 1.995-1.971 1.983 1.983 0 0 0-1.995-1.97 1.983 1.983 0 0 0-1.995 1.97c0 1.089.893 1.971 1.995 1.971Z" fill="#81B3D2"/></g></symbol><symbol id="icon-cross"><g fill="none"><path d="M22.2 2.8 19.4 0l-8.3 8.3L2.8 0 0 2.8l8.3 8.3L0 19.4l2.8 2.8 8.3-8.3 8.3 8.3 2.8-2.8-8.3-8.3 8.3-8.3Z" fill="#fff"/></g></symbol><symbol id="icon-gift"><g fill="none"><path d="M61.156 22.117H36.368C50.184 15.319 51.302 11.02 50.794 8.62c-1.118-3.899-5.69-6.898-9.956-5.298-5.587 2.099-7.111 10.296-8.635 16.194-1.93-5.998-3.759-13.595-8.127-17.494-1.219-1.1-3.047-2.2-5.79-2-4.064.4-9.854 5.299-7.416 10.797 2.235 5.299 9.65 8.697 14.628 11.397H2.844A2.817 2.817 0 0 0 0 25.016v11.196c0 1.6 1.32 2.8 2.844 2.8h.305V75h57.905V39.011h.102c1.625 0 2.844-1.3 2.844-2.799V25.016c0-1.6-1.32-2.9-2.844-2.9ZM42.464 5.822c2.133-.3 4.977 1.3 5.282 3.199.406 2.699-3.352 5.198-5.08 6.298-2.539 1.7-4.977 2.599-7.314 3.999.813-3.7 2.54-12.896 7.112-13.496Zm-22.96 9.797c-2.234-1.5-6.5-4.399-6.4-7.698.102-3.599 5.791-6.498 8.839-3.799 3.86 3.3 5.689 10.997 7.111 16.395-3.25-1.6-6.298-2.799-9.55-4.898ZM25.499 72H6.095V39.01h19.403v32.99Zm0-35.989H3.048V25.116h22.45v10.896Zm10.16 35.989h-7.214V25.116h7.213V72Zm22.348 0H38.705V39.01h19.403v32.99h-.102Zm2.946-35.989H38.705V25.116h22.247v10.896Z" fill="#81B3D2"/></g></symbol><symbol id="icon-house"><g fill="none"><path d="M29.619 64.939h16.064V41.17H29.619v23.768Zm13.152-2.884h-10.24v-18h10.14v18h.1Z" fill="#81B3D2"/><path d="M72.892 39.182 75 37.094l-9.94-9.845V.398H51.205v13.127L37.45 0 0 37.193l2.108 2.089 7.832-7.757v37.591H6.024V72h64.157v-2.884h-5.12v-37.69l7.83 7.756Zm-18.775-35.8h7.931v20.983l-7.931-7.857V3.381Zm8.032 65.635H12.952V28.54L37.45 4.177 62.048 28.54v40.476h.1Z" fill="#81B3D2"/><path d="M29.92 27.05c0 4.275 3.514 7.756 7.73 7.756 4.318 0 7.832-3.48 7.832-7.757 0-4.276-3.514-7.657-7.831-7.657-4.318 0-7.731 3.38-7.731 7.657Zm7.73-4.973c2.712 0 5.02 2.188 5.02 4.972 0 2.685-2.208 4.972-5.02 4.972-2.71 0-5.02-2.187-5.02-4.972 0-2.685 2.31-4.972 5.02-4.972ZM19.98 41.17h-3.012v3.88h3.012v-3.88ZM25.904 41.17h-3.012v3.88h3.012v-3.88ZM19.98 47.139h-3.012v3.878h3.012V47.14ZM25.904 47.139h-3.012v3.878h3.012V47.14ZM52.008 41.17h-3.012v3.88h3.012v-3.88ZM58.032 41.17H55.02v3.88h3.012v-3.88ZM52.008 47.139h-3.012v3.878h3.012V47.14ZM58.032 47.139H55.02v3.878h3.012V47.14Z" fill="#81B3D2"/></g></symbol><symbol id="icon-menu"><g fill="none"><path d="M22.9 0H0v4h22.9V0ZM22.9 9H0v4h22.9V9ZM22.9 18H0v4h22.9v-4Z" fill="#81B3D2"/></g></symbol><symbol id="icon-youtube"><g fill="none"><path d="M17.181 0H2.813C1.306 0 0 1.3 0 2.8v8.3C0 12.7 1.306 14 2.813 14h14.368c1.608 0 2.814-1.3 2.814-2.8V2.8c.1-1.5-1.206-2.8-2.814-2.8ZM7.033 10.4V3.6L13.866 7l-6.833 3.4Z" fill="#fff"/></g></symbol><symbol id="like-icon"><g fill="none"><path opacity=".3" d="m12.964 3.78-.628 3.045-.627 2.625h9.096v2.205L17.773 18.9h-9.41V8.4l4.6-4.62ZM13.8 0 6.9 6.93c-.418.315-.627.84-.627 1.47v10.5c0 1.155.94 2.1 2.09 2.1h9.41c.836 0 1.568-.525 1.881-1.26l3.137-7.455c.104-.21.104-.525.104-.735v-2.1H23c0-1.155-.94-2.1-2.09-2.1h-6.587l1.045-4.83v-.315c0-.42-.209-.84-.418-1.155L13.8 0ZM4.182 8.4H0V21h4.182V8.4Z" fill="#000"/></g></symbol><symbol id="logo-htmlacademy" viewBox="0 0 60 60"><path fill="#2E368F" d="M30.2 5H30L10.3 7.1v36.2L30 55l19.7-11.7V7.1L30.2 5zm17 36.8L30 52 12.8 41.8V27l17.1 10.2V39l-11.7-7v1.8L30 40.9v1.9l-11.8-7v1.8l11.8 7 11.9-7.1v-7.6l5.3-3.2v15.1zm-.1-17-4.7 2.8-2.2 1.3-10.3-6.1v1.8l8.8 5.3h-.1l-.2.1-1.3.7-7.3-4.3v1.8l5.8 3.4-1.4.9-4.3-2.6v1.8l2.9 1.7-2.9 1.7-17-10.1 17-10.2 17.2 10zm.1-1.8L29.9 12.8 12.8 23V9.4L30 7.6l17.2 1.8V23z"/></symbol><symbol id="mail"><g fill="none"><path d="M8 8c-.3 0-.5-.1-1-.3L0 4v7c0 .5.5 1 1 1h14c.5 0 1-.5 1-1V4L9 7.7c-.5.2-.7.3-1 .3Zm7-8H1C.5 0 0 .5 0 1v.8L8 6l8-4.2V1c0-.5-.5-1-1-1Z" fill="#000"/></g></symbol><symbol id="main-logo"><g fill="none"><path d="M185 0H0l79.81 90.101c7.039 7.865 18.44 7.865 25.479 0L185 0Z" fill="#81B3D3"/><path d="M42.83.697 92.004 58.84l48.878-57.745L42.83.697Z" fill="#23A9E1"/><path d="M120.954 17.224c-5.056 0-10.014.1-15.07.1 5.949-6.87 8.626-6.173 15.07-.1ZM80.107 22.6h26.471c-1.983-1.195-6.642-7.069-9.22-4.879-.198.2-7.436-8.86-12.195-4.48-4.163 3.784-6.047-.497-10.806 2.49-5.255 3.583 3.172 5.674 5.75 6.869Z" fill="#fff"/><path d="M92.302 0H41.838v22.4l50.166 61.23.298-.398 50.265-60.134V0H92.302ZM54.429 1.792h5.453v17.124l-5.453-6.471V1.792Zm-.793 9.757L48.68 5.675V1.792h4.957v9.757ZM72.771 8.86 67.12 1.792h5.65v7.069Zm-6.544 3.783L60.675 1.792h5.552v10.852Zm-5.65-9.259 5.452 10.653c-2.776 2.09-4.66 3.982-5.453 4.878V3.385Zm6.443-.498 5.552 6.87a41.788 41.788 0 0 0-3.073 1.891 53.695 53.695 0 0 0-2.479 1.793V2.886Zm6.544-.199 4.759 4.182c-1.686.696-3.272 1.493-4.76 2.29V2.687Zm5.552 3.883-5.354-4.779h5.949v4.58c-.298 0-.397.1-.595.199Zm18.936-4.779h4.957l-4.957 2.39v-2.39Zm-5.75 0h4.362l-4.362 2.09v-2.09Zm-.893 1.991-4.164-1.99h4.164v1.99Zm-5.452.498L80.9 1.792h5.057v2.489Zm-5.552-1.892 4.66 2.29c-1.587.399-3.173.797-4.66 1.295V2.389Zm6.345 0 3.37 1.593c-1.19.1-2.28.2-3.47.399V2.389h.1Zm10.31.1v1.892c-1.09-.2-2.18-.3-3.37-.399l3.37-1.493Zm6.445-.1v3.684c-1.487-.498-3.074-.995-4.76-1.394l4.76-2.29Zm.694-.597h5.849l-5.353 4.779c-.199-.1-.298-.1-.496-.2V1.793Zm13.483 0h5.552l-5.552 10.852V1.792Zm-6.543 0h5.651l-5.651 6.97v-6.97Zm-.793.896V9.16c-1.488-.796-3.074-1.593-4.759-2.29l4.759-4.18Zm6.543.2V13.34c-.694-.498-1.487-.996-2.28-1.593-.992-.697-2.181-1.394-3.371-2.09l5.651-6.77Zm6.345.497v15.133c-1.09-.996-2.875-2.688-5.453-4.58l5.453-10.553Zm.793 15.93V1.791h5.453v11.35l-5.453 6.172c0 .1.099.1 0 0Zm6.246-17.523h4.957v4.68l-4.957 5.774V1.792Zm-82.288 0V4.68l-2.479-2.887h2.479Zm12.69 18.12.1.1s3.569-3.883 9.12-7.567c5.255-3.485 13.186-7.567 22.11-7.467 8.823 0 16.953 4.181 22.108 7.666 5.552 3.684 9.22 7.467 9.319 7.566l-3.866 4.48c-6.841.897-11.798 6.074-18.441 4.979-3.37-.598-3.47-2.49-4.461-4.48-.694-1.494-1.884-1.295-3.47-1.892-1.388-.598-2.28-1.693-5.155-1.095-2.479.597-2.776 4.48-5.949 4.28-1.685-.099-1.785-2.488-4.164-5.475-6.246-7.567-12.095-6.471-16.061.498l30.04 35.742-31.23-37.335Zm75.249-14.436V1.792h3.173l-3.173 3.684Z" fill="#491213"/><path d="m87.94 70.588 4.064-6.472 3.966 6.472-3.966 6.47-4.065-6.47Z" fill="#23A9E1"/><path d="M64.938 32.158c.496.597.893 1.294.793 2.09-.099.598-.892 1.593-.297 1.792.694-.896 1.487-1.891 2.181-2.787-.595-.2-5.353-5.775-5.353-6.472-1.091.598-2.083 1.195-3.173 1.693.198.697 1.289 0 1.884 0 .793.1 1.388.597 1.983 1.195-1.686 1.393-5.85 4.978-6.346 5.077-.198 0-1.09-.597-1.09-.1 0 .3.892.996.991 1.195.694.896 1.487 1.792 2.181 2.688.595-.298-.099-.697.199-1.194.297-.398 4.858-4.281 6.047-5.177ZM59.684 25.189c.396-.1.595.398.991-.1-.793-.996-1.586-1.892-2.38-2.887-.396-.399-.792-.896-.693 0 .099.597-6.048 5.675-6.444 5.774-.496.2-.794-.398-1.091.1.694.896 1.487 1.692 2.181 2.588.198.299.496.598.694.896.297.299.198-.697.198-.597-.099-.498.496-.896.893-1.195 1.487-1.294 5.254-4.58 5.65-4.58ZM50.96 24.293c-1.785.497-3.669-.2-4.165-1.992-.495-1.792.595-3.783 2.082-4.779 1.388-.995 3.57-.995 4.362.797.298.796.199 1.692-.099 2.489-.198.498-.595.995.1 1.294.892-1.095 1.685-2.19 2.577-3.285-1.09-.598-1.487-1.693-2.28-2.589-.892-1.095-2.082-2.09-3.47-2.29-2.875-.398-5.552 2.589-5.75 5.177-.1 1.494.396 2.788 1.19 3.983.793.995 1.883 1.593 2.379 2.787.297.1 2.677-.995 3.271-1.294-.099-.1-.099-.199-.198-.299 0 0-.694.2 0 0ZM89.922 60.532c-1.19-.796-3.965-4.68-4.56-5.277-.1-.1-.199-.298-.298-.398 0 0-.297.2-.198.2-.198.099.1.597-.1.895-.792 1.195-5.75 4.978-5.948 5.177-.594.399-1.19-.199-1.487.3.694.895 2.776 3.484 2.974 3.583.496.1.1-.796.199-.995.099-.399 2.577-2.39 3.47-3.186.297-.299.694.398.892.697.297.497.496.995.297 1.593-.099.398-.694.896-.297 1.194.595-.697 2.38-2.787 2.578-2.986.297-.3-.595 0-.496-.1-.397.2-.694.2-1.09 0-.1-.1-1.091-1.095-.992-1.195.397-.398.991-.995 1.487-1.095.892-.199 1.586 1.493 1.686 2.09.099.598.099 1.195-.1 1.793-.099.398-.495.697 0 .896.694-.996 1.388-1.892 2.082-2.887.199-.2 0-.299-.099-.299.199 0-.099-.1 0 0ZM79.81 56.35c2.18-1.891 2.478-5.077.793-7.267-1.884-2.49-5.354-3.087-7.733-1.095-2.181 1.891-2.479 4.977-.793 7.267 1.983 2.688 5.155 2.987 7.733 1.095-.1.1 1.19-.895 0 0Zm-.496-4.679c-.595 1.494-2.181 3.087-3.668 3.684-1.785.697-3.074-.796-2.38-2.589.694-1.493 2.181-3.086 3.669-3.683 1.883-.697 3.073.896 2.379 2.588.1-.199-.396.896 0 0ZM73.465 41.815c.495.1.892.498 1.288 0-.694-.896-1.487-1.792-2.18-2.589-.595.299 0 .498-.199.996-.198.398-2.578.796-3.172.896.198-.597.892-2.589 1.19-2.788.495-.398.892.398 1.288-.1l-2.677-3.285c-.297-.398-.595-.995-.991-.697 0 0 0 1.494-.1 1.693-.099.199-.892 3.584-1.883 4.48-.496.398-2.181 1.892-2.677 2.09-.496.2-.793-.597-1.19 0 .794.996 1.686 1.992 2.479 2.988.1.1.595.896.793.896.496.1.1-.896.1-1.096.197-.398 2.478-2.688 3.47-2.887 1.189-.199 2.974-.697 4.46-.597-.396 0 .298.1 0 0Z" fill="#fff"/><path d="M67.219 22.8c-3.966-.2-2.38-3.983.396-4.78 2.578-.796 8.03 1.693 9.716 3.385-2.776.896-6.345.697-9.32.896-.197-3.186-.99-2.09-.792.498ZM76.637 35.244c-8.526-.1-2.776-13.241.1-12.445 3.37 1.095 2.974 12.544-.1 12.445ZM82.685 30.963c-.793 2.489-2.38 2.987-2.181-.1.198-3.484 2.478-2.688 4.858-3.982 1.983-1.095 3.073-5.177 6.543-2.788 1.586 1.096 3.37.2 3.867 1.792 0-.1-4.462 10.255-1.983 10.255-4.957 0-2.776-5.874-.892-9.856-1.785.896-4.76 6.67-2.38 7.566-1.289 1.693-5.155 3.883-7.138 2.29-1.487-1.095-.694-3.186-.694-5.177ZM86.75 40.52c-3.47.996-8.03-1.194-2.479-2.29 3.47-.696 7.138.698 2.479 2.29-.1 0 .099 0 0 0ZM91.112 40.421c-.694-1.693.595-3.584 2.677-2.19 1.784 1.194-.892 3.086-2.677 2.19ZM88.138 45c-2.38-.696-10.41-.597-5.156-2.787 1.686-.597 10.113.2 5.156 2.788ZM98.548 48.286c-1.388-1.194-2.876-1.294-4.164 0-1.785-3.285-8.23-2.19-11.303-2.688 1.587 4.082 14.673 4.879 15.467 2.688ZM96.664 50.775c-3.173-.1-6.643-.597-9.518.1 1.884.498 6.345 1.792 2.181 2.887 1.488 2.19 3.966 1.991 5.552.1-.694-.3-.991-.697-1.586-1.096 1.586-.298 3.173-1.194 3.371-1.99ZM100.233 46.892c-5.255-3.086-3.966-5.376.397-7.566 2.28-1.095 7.237-5.177 9.319-3.883-3.272 3.883-6.543 7.666-9.716 11.45Z" fill="#DC6243"/><path d="M96.466 39.625c-4.462-4.58 6.642-4.182 8.427-5.775 1.289.398 10.707-8.263 12.987-7.666-1.685 1.892-5.155 8.064-7.733 8.064-1.982 0-3.965-.298-5.452 1.096-2.182 2.09-5.85 3.086-8.23 4.28Z" fill="#F49774"/><path d="M97.953 34.05c-2.479 1.294-4.759-3.884-.496-3.386 2.776.299 5.651-.199 8.229.2-1.983 2.29-4.66 3.583-7.733 3.185Z" fill="#F4B1A4"/><path d="M110.445 52.269c.198.597.297 1.294.198 1.99-.099.897-.991 2.888-2.181 2.29-1.19-.597-2.181-1.692-3.173-2.588.793-.896 1.487-1.692 2.875-1.294.397.1.694 0 .298-.299-.397-.199-3.074-1.991-3.272-1.792-.297.299.496.896.198 1.493-.198.399-.594.797-.892 1.195-.694-.597-1.883-1.294-1.09-2.29.495-.697 1.288-1.194 2.082-1.294.594-.1 1.784.398 1.982-.2-1.09-.497-2.181-.995-3.271-1.592.198.797-3.272 4.48-4.065 5.476-.099.1-.694.597-.694.796 0 .399.595.1.694.1.496-.2 6.742 5.077 6.94 5.476.099.298-.198.597 0 .697 0 0 .198.199.297.199.397-.498 4.462-5.974 5.354-6.173-.793-1.195-1.586-2.39-2.379-3.684-.595.299 0 .996.099 1.494ZM104.298 58.94c-2.082-1.295-5.552 1.293-6.048 1.492-.991.498-1.784-.497-1.289-1.493.496-.796 1.388-1.195 2.28-1.294.298 0 1.29.199 1.488 0 .099-.2.198-.2 0-.299-.892-.597-1.686-1.195-2.578-1.692-.198 1.095-1.388 1.692-2.082 2.389-.793.896-1.487 1.892-1.487 3.186 0 1.095.694 2.09 1.685 2.688 1.091.597 2.28.1 3.272-.498.595-.398 1.289-.896 1.884-1.194.991-.498 2.28-.1 1.983 1.294-.298 1.095-1.388 2.09-2.38 2.29-.595.199-1.289.1-1.883-.1-.397-.1-.992-.697-1.19-.1 1.19.797 2.28 1.693 3.47 2.49.099-.797.496-1.096 1.09-1.593a13.288 13.288 0 0 0 1.983-2.091c1.19-1.693 1.586-4.082-.198-5.476Z" fill="#fff"/><path d="M104.298 58.94c.991.596-.595-.499 0 0ZM140.683 19.514c-.694.697-8.328-2.29-8.923-2.788-.297-.1-.297-1.294-.694-.796l-1.189 1.493c-.397.498-.793.996-1.289 1.493-.298.299-.496.498 0 .697.793-.398 5.354 7.268 4.957 8.463-.694.398-6.841-5.078-7.039-5.377-.099-.1.297-.995-.198-.896-.199 0-.694.896-.893 1.096-.297.398-.595.697-.892 1.095.297.498.496 0 .991 0 .397.1 1.785 1.294 2.182 1.692-.694 0-2.677.1-2.876.1-.892.1-.396-.697-.991-.896-.793.896-1.487 1.792-2.28 2.787-.397.498-.893 1.096-1.289 1.593-.099.1 0 0 0 .1.297.299.099.2.595 0 .495-.2 6.543 4.878 6.741 5.177.397.398-.198.996.397 1.195.595-.697 1.19-1.494 1.785-2.19.099-.1.099-.1 0-.2-.397-.398-.496.2-.992.2-.496-.1-4.362-3.386-5.849-4.58 1.784-.1 7.237-.299 8.129-.299.298 0 1.091.896 1.091 1.195-.099.398-.496.597.099.796.496-.597.992-1.095 1.487-1.692l.199-.299c.099-.1.099-.1.198-.299l.198-.199c.397-.498 1.785-1.99 1.586-2.09-.495-.399-.694.497-1.288-.1-.298-.2-1.19-1.792-1.388-2.19-.298-.399.594-.896.991-1.096.793-.497 3.173-1.194 3.47.3 0 .298-.297.497-.099.696 0 0 .198.2.297.2.199-.2 2.38-2.788 3.272-3.983a2.729 2.729 0 0 1-.496-.398Zm-7.336 2.19c.099 0 .198-.1 0 0-.298.199-.694.498-.992.796-.495-.896-.991-1.792-1.586-2.688 1.19.498 2.379.996 3.47 1.494-.198.1-.496.199-.892.398ZM123.73 32.855c-2.38-1.992-5.552-1.394-7.535.796-1.884 2.29-1.685 5.675.595 7.566 2.28 1.892 5.651 1.394 7.535-.796 1.883-2.29 1.784-5.675-.595-7.566Zm-.298 6.57s0 .1 0 0c-1.288 1.295-3.37.1-4.461-.697-1.091-.796-3.073-2.588-1.884-4.081 1.091-1.295 3.074-.2 4.164.497 1.19.797 3.371 2.589 2.281 4.182l-.1.1Z" fill="#fff"/><path d="M123.73 32.855c1.19.995-.298-.2 0 0ZM123.432 39.526c0-.1 0-.1 0 0l.1-.1c-.1 0-.1.1-.1.1ZM117.186 41.914c.1.1.298.3 0 0-2.875-2.19-6.245-1.593-8.427 1.096a9395.1 9395.1 0 0 1-2.974 3.584c.397.498.793-.1 1.289.199.397.299 6.147 5.077 6.246 5.376.198.498-.297.498.099.896.198.1 4.461-5.177 4.858-6.173.892-1.792.297-3.683-1.091-4.978Zm-1.288 6.77c-.199.3 0 .1-.694.697-.298.3-6.345-4.679-6.147-4.878.793-.896 2.578-1.593 3.569-1.294 2.181.497 5.155 3.186 3.272 5.475Z" fill="#fff"/></g></symbol><symbol id="phone"><g fill="none"><path d="M3.6 7.8c1.4 2.8 3.8 5.1 6.6 6.6l2.2-2.2c.3-.3.7-.4 1-.2 1.1.4 2.3.6 3.6.6.6 0 1 .4 1 1V17c0 .6-.4 1-1 1C7.6 18 0 10.4 0 1c0-.6.4-1 1-1h3.5c.6 0 1 .4 1 1 0 1.2.2 2.4.6 3.6.1.3 0 .7-.2 1L3.6 7.8Z" fill="#010101"/></g></symbol><symbol id="preview-decor"><g fill="none"><path fill-rule="evenodd" clip-rule="evenodd" d="M0 0h122v11.755L0 0ZM244 0H122v11.755L244 0Z" fill="#fff"/></g></symbol><symbol id="preview-lettering"><g fill="none"><path d="m101.385 42.804-.123.123c-.859.917-1.84 1.345-2.761 1.345l1.718-2.996c1.105-1.896.061-3.73-1.657-3.73-1.412 0-2.516.55-3.56 2.384l-.92 1.59-.737 1.284-.122.123c-1.35 1.529-2.64 2.752-3.437 2.752-.43 0-.614-.306-.184-.979l3.927-6.849h1.473l.553-.856H94.02L95.74 34h-1.841l-1.719 2.996h-1.657l-.552.856h1.657l-3.682 6.36c-.798 1.345-.246 2.63 1.227 2.63 1.044 0 2.27-.796 3.376-1.896 0 2.323 3.252 2.813 5.216.305h.43c1.104 0 2.823-.672 3.743-1.773 0-.306-.307-.55-.552-.673Zm-3.928.123h-.061c-.614 0-1.105.489-1.105 1.1 0 .245.062.428.184.612v.061c-.859 1.468-2.945 1.223-1.902-.734l1.411-2.385.86-1.467c1.288-2.201 3.068-1.345 1.963.55l-1.35 2.263ZM126.854 42.804l-.123.122c-1.35 1.53-3.007 2.752-4.296 2.752-1.104 0-1.779-.734-.982-2.201l.184-.306c1.166.49 3.437.245 4.787-2.14l.246-.428c.982-1.712.061-2.935-1.473-2.935-1.473 0-2.639.795-3.437 2.14l-1.78 3.057-.122.123c-1.35 1.528-2.639 2.751-3.437 2.751-.43 0-.614-.305-.184-.978l2.639-4.647c.798-1.407.061-2.385-.982-2.385-.798 0-1.657.428-2.578 1.406l2.946-5.075h-1.841l-5.094 8.744-.123.122c-1.35 1.53-2.639 2.752-3.436 2.752-.43 0-.614-.305-.185-.978l3.928-6.849h1.473l.552-.856h-1.534l1.719-2.996h-1.842l-1.718 2.996h-1.657l-.552.856h1.657l-3.683 6.36c-.797 1.345-.245 2.63 1.228 2.63.736 0 1.534-.368 2.332-.98l-.491.796h1.841l2.762-4.831c2.823-3.547 4.05-3.058 3.314-1.712l-2.394 4.158c-.797 1.345-.245 2.63 1.228 2.63 1.105 0 2.332-.857 3.437-1.958.061 1.162 1.043 1.957 2.516 1.957 2.086 0 4.173-1.59 5.646-3.363.061-.367-.246-.611-.491-.734Zm-3.498-2.568c1.043-1.834 2.946-1.529 1.841.367l-.246.428c-.859 1.468-2.086 1.468-2.761 1.223l1.166-2.018ZM193.81 42.804l-.123.123c-.675.795-1.473 1.467-2.209 2.018.613-1.774.429-4.403 1.595-6.788l-1.35-.734c-.736 1.04-2.393 3.425-4.112 5.381l-.123.123c-1.35 1.528-2.639 2.751-3.436 2.751-.43 0-.614-.305-.184-.978l3.927-6.849h-1.841l-3.253 5.687c-1.411 1.284-2.454 1.957-2.823 1.835-.429-.184 0-.856.246-1.284l3.559-6.238h-1.841l-2.884 4.953-.123.123c-.859.917-1.841 1.345-2.762 1.345l1.719-2.996c1.104-1.896.061-3.73-1.657-3.73-1.412 0-2.516.55-3.56 2.384l-.92 1.59-.737 1.284-.122.123c-1.351 1.528-3.008 2.751-4.296 2.751-1.105 0-1.78-.733-.982-2.2l.184-.307c1.166.49 3.436.245 4.787-2.14l.245-.428c.982-1.712.062-2.935-1.473-2.935-1.473 0-2.639.795-3.437 2.14l-1.779 3.058-.123.122c-1.534 1.773-2.823 2.874-4.296 3.485l4.112-7.032h-1.105c0-.734-.798-1.773-1.902-1.773-.982 0-2.394.795-3.13 2.14l-1.78 3.058-.123.122c-1.35 1.529-2.639 2.752-3.437 2.752-.429 0-.613-.306-.184-.979l1.841-3.18c.614-1.1.307-1.773-.245-2.507l-1.043-1.223c-.246-.305-.246-.733.122-1.04l-.982-1.039c-1.043.918-1.104 1.957-.49 2.813l.184.184c-.798 1.161-1.903 2.69-3.13 4.097l-.123.122c-.859.917-1.841 1.345-2.762 1.345l1.719-2.996c1.104-1.896.061-3.73-1.657-3.73-1.412 0-2.517.55-3.56 2.385l-.92 1.59-.737 1.284-.123.122c-1.534 1.773-2.823 2.874-4.296 3.485l4.112-7.032h-1.104c0-.734-.798-1.773-1.903-1.773-.982 0-2.393.795-3.13 2.14l-2.577 4.464c-.798 1.345-.246 2.63 1.227 2.63.491 0 1.105-.245 1.78-.612l-.491.856c-2.455.734-4.051 1.773-4.051 3.119 0 1.773 2.701 2.14 4.051-.123l1.411-2.385c1.473-.427 2.885-1.345 4.419-2.751 0 2.324 3.253 2.813 5.217.306h.429c1.105 0 2.823-.673 3.744-1.774.859-1.04 1.595-1.957 3.068-3.913l.246.305c.245.306.307.673.123 1.04l-1.964 3.363c-.798 1.345-.246 2.63 1.227 2.63.921 0 1.964-.612 2.946-1.468 0 .856.552 1.468 1.596 1.468.491 0 1.104-.245 1.779-.612l-.429.734c-2.455.734-4.051 1.773-4.051 3.118 0 1.774 2.701 2.14 4.051-.122l1.411-2.385c1.473-.489 2.946-1.345 4.48-2.813.062 1.162.982 1.957 2.517 1.957 1.472 0 3.007-.856 4.234-1.957-.061 2.385 3.253 2.874 5.217.367h.429c.553 0 1.35-.183 2.026-.55-.491 1.284-.062 2.14.981 2.14.982 0 2.148-.917 3.008-1.773-.184.978.429 1.773 1.595 1.773 1.535 0 3.253-1.59 4.787-3.363 1.044-1.223 1.964-2.507 2.639-3.363-.736 1.896-.307 5.32-2.086 5.32-.614 0-.86-.673-.86-.673l-1.166.612s.307 1.467 2.026 1.467c.184 0 .306 0 .491-.06h.061c1.902-.245 3.744-1.713 5.094-3.303-.062-.306-.368-.611-.675-.673Zm-26.329-2.568c1.044-1.834 2.946-1.529 1.842.367l-.246.428c-.859 1.468-2.086 1.468-2.762 1.223l1.166-2.018Zm-35.104 9.54c-.368.672-.982.61-.982.06 0-.489.43-1.039 1.841-1.59l-.859 1.53Zm.859-4.098c-.429 0-.613-.305-.184-.978l2.578-4.464c.982-1.712 2.946-1.284 2.025.367l-1.411 2.446c-1.105 1.773-2.271 2.63-3.008 2.63Zm11.293-2.751h-.062c-.613 0-1.104.489-1.104 1.1 0 .245.061.428.184.612v.061c-.859 1.468-2.946 1.223-1.903-.734l1.412-2.385.859-1.467c1.289-2.201 3.069-1.345 1.964.55l-1.35 2.263Zm11.537 6.848c-.368.673-.981.612-.981.062 0-.49.429-1.04 1.841-1.59l-.86 1.528Zm.86-4.097c-.43 0-.614-.305-.184-.978l2.577-4.464c.982-1.712 2.946-1.284 2.025.367l-1.411 2.446c-1.105 1.773-2.271 2.63-3.007 2.63Zm18.104-2.751h-.061c-.614 0-1.105.489-1.105 1.1 0 .245.061.428.184.612v.061c-.859 1.468-2.946 1.223-1.902-.734l1.411-2.385.859-1.467c1.289-2.201 3.069-1.345 1.964.55l-1.35 2.263ZM79.844 40.847H62.107v1.223h17.737v-1.223ZM219.156 40.847H201.42v1.223h17.736v-1.223Z" fill="#766458"/><path d="M100.035 0h4.725l-.736 27.456h-8.899l-1.227-11.313-1.228 11.313h-8.96L83.035 0H87.7l.368 22.747h.492L91.566 0h4.664l3.007 22.747h.491L100.035 0ZM119.551 22.747v4.77h-12.827V0h12.827v4.708h-8.163v6.605h6.506v4.708h-6.506v6.665h8.163v.061ZM132.684 22.747v4.77h-11.231V0h4.665v22.747h6.566ZM142.626 17.366l4.726-1.1v8.316c0 1.59-1.35 2.874-2.885 2.874h-7.057c-1.596 0-2.885-1.345-2.885-2.874V2.874A2.876 2.876 0 0 1 137.41 0h7.057c1.535 0 2.885 1.284 2.885 2.874v5.565l-4.726 1.1V4.647h-3.375v18.04h3.375v-5.32ZM160.117 0c1.534 0 2.884 1.284 2.884 2.874v21.647c0 1.59-1.35 2.874-2.884 2.874h-7.058c-1.595 0-2.884-1.345-2.884-2.874V2.874A2.876 2.876 0 0 1 153.059 0h7.058Zm-1.841 4.708h-3.375v18.04h3.375V4.707ZM178.344 0h4.665v27.456h-4.665V13.942l-1.902 6.971h-4.603l-1.841-6.971v13.514h-4.664V0h4.664l4.173 13.27L178.344 0ZM198.167 22.747v4.77h-12.826V0h12.826v4.708h-8.162v6.605h6.505v4.708h-6.505v6.665h8.162v.061Z" fill="#81B3D3"/><path d="M27.187 96.372c-2.209-1.834-4.97-3.057-7.917-3.057-2.209 0-5.093 1.284-5.093 3.852 0 2.69 3.252 3.73 5.278 4.342l3.068.917c6.383 1.896 11.354 5.075 11.354 12.474 0 4.525-1.105 9.234-4.726 12.291-3.62 3.058-8.408 4.281-13.01 4.281-5.77 0-11.477-1.957-16.141-5.198l4.971-9.478c3.007 2.63 6.505 4.709 10.617 4.709 2.823 0 5.77-1.407 5.77-4.587 0-3.363-4.665-4.464-7.243-5.197-7.487-2.202-12.397-4.097-12.397-12.964 0-9.295 6.628-15.348 15.834-15.348 4.603 0 10.31 1.467 14.361 3.79l-4.726 9.173ZM56.216 94.66v7.644h13.44v10.089h-13.44v7.889h14.238v10.089H44.31v-45.74h26.144v10.09l-14.238-.06ZM79.291 84.632H96.23c12.765 0 23.321 10.028 23.321 22.87 0 12.841-10.617 22.869-23.321 22.869H79.29v-45.74Zm11.968 35.65h2.7c7.119 0 13.195-3.914 13.195-12.78 0-8.194-5.401-12.78-13.072-12.78h-2.823v25.56ZM175.951 106.645c0 14.798-10.679 25.255-25.408 25.255-14.729 0-25.407-10.457-25.407-25.255 0-13.82 12.212-23.542 25.407-23.542s25.408 9.723 25.408 23.542Zm-38.418.061c0 7.889 5.83 13.637 12.949 13.637s12.949-5.748 12.949-13.637c0-6.298-5.83-12.107-12.949-12.107-7.058 0-12.949 5.809-12.949 12.107ZM182.272 84.632h11.967l21.848 28.006h.123V84.632h11.968v45.739H216.21l-21.848-28.067h-.123v28.067h-11.967v-45.74ZM249.842 122.422l-3.192 7.949h-12.642l17.675-45.74h13.01L282 130.372h-12.704l-3.007-7.949h-16.447Zm8.346-23.665h-.123l-4.909 14.554h9.942l-4.91-14.554ZM66.22 175.926c4.725-1.59 5.032-7.46.43-7.46-1.29 0-2.824.917-3.867 2.69l-6.26 10.824c-.307.489-.552.917-.92 1.345-1.596-2.201-1.167-5.504 1.104-6.971l-.92-1.162c-4.91 3.119-3.437 12.046 4.725 12.046 6.935 0 10.188-8.316 5.708-11.312Zm-5.77 9.539c-1.41 0-2.454-.306-3.375-.795.43-.489.798-1.039 1.166-1.651l3.928-6.787.614.061c5.462 1.162 3.314 9.172-2.332 9.172Zm2.517-10.579 1.902-3.241c1.719-2.935 3.867-1.223 2.7.979-.92 1.712-2.209 2.201-4.602 2.262Z" fill="#fff"/><path d="M85.92 183.448c-.369 1.346.368 2.507 1.902 2.507.92 0 2.087-.611 3.253-1.528.123.917.859 1.528 2.025 1.528 1.227 0 2.578-.856 3.928-2.079-.246 1.223.307 2.079 1.473 2.079 1.288 0 2.7-1.161 3.805-2.201-.246 1.223.491 2.201 1.964 2.201 1.902 0 4.111-2.079 6.075-4.28 0-.061-.061-.061-.061-.122 1.289-1.468 2.393-3.058 3.253-4.159-.921 2.385-.43 6.727-2.639 6.727-.798 0-1.105-.856-1.105-.856l-1.473.734s.43 1.895 2.578 1.895c.245 0 .429 0 .675-.061h.061c1.718-.245 3.375-1.284 4.848-2.568.062 1.529 1.228 2.629 3.13 2.629 2.639 0 5.278-2.079 7.181-4.28-.184-.306-.553-.673-.859-.795l-.185.183c-1.657 1.957-3.805 3.486-5.462 3.486-1.411 0-2.27-.917-1.227-2.752l.245-.428c1.473.611 4.296.306 6.076-2.691l.307-.55c1.227-2.14.061-3.73-1.841-3.73-1.903 0-3.376.978-4.357 2.691l-2.271 3.852h-.062l-.184.183c-.859.979-1.902 1.896-2.823 2.508.737-2.202.553-5.626 2.026-8.561l-1.719-.918c-.982 1.346-3.068 4.342-5.155 6.788l.061.061-.061.122c-1.657 1.957-3.314 3.486-4.357 3.486-.491 0-.798-.367-.246-1.284l4.971-8.683h-2.332l-4.112 7.215c-1.78 1.59-3.13 2.507-3.56 2.324-.552-.245 0-1.101.308-1.59l4.541-7.888h-2.332l-3.682 6.359c-.062-.061-.123-.061-.184-.122l-.185.183c-1.657 1.957-3.314 3.486-4.357 3.486-.49 0-.798-.367-.245-1.284l3.743-6.543h-1.35c.061-.979-.92-2.324-2.455-2.324-1.227 0-3.007.979-3.989 2.691l-2.332 4.036c-.123-.123-.246-.184-.368-.245l-.184.183c-1.657 1.957-3.805 3.486-5.462 3.486-1.412 0-2.271-.917-1.228-2.752l2.394-4.158c1.35-2.324 3.743-1.896 2.332.489l-.307.551h1.902l.307-.551c1.228-2.14.062-3.73-1.84-3.73-1.903 0-3.376.979-4.358 2.691l-2.332 3.974c-.062-.061-.123-.061-.184-.122l-.184.184c-1.657 1.956-3.806 3.485-5.463 3.485-1.411 0-2.27-.917-1.227-2.752l.246-.428c1.472.612 4.296.306 6.075-2.69l.307-.551c1.228-2.14.062-3.73-1.841-3.73s-3.375.979-4.357 2.691l-2.455 4.158c-1.473 2.446-.184 4.77 2.577 4.77 2.026 0 4.112-1.223 5.77-2.813-.062 1.59 1.165 2.813 3.13 2.813 1.963-.123 3.866-1.223 5.523-2.63Zm35.595-5.87c1.35-2.324 3.743-1.896 2.332.489l-.307.55c-1.105 1.896-2.639 1.835-3.498 1.529l1.473-2.568Zm-33.263 5.687 3.252-5.626c1.228-2.14 3.744-1.59 2.578.489l-1.841 3.18c-1.412 2.201-2.823 3.241-3.744 3.241-.49-.061-.798-.367-.245-1.284ZM73.4 177.578c1.35-2.324 3.743-1.896 2.332.489l-.307.55c-1.105 1.896-2.639 1.835-3.498 1.529l1.473-2.568ZM152.323 185.954c2.639 0 5.278-2.079 7.18-4.28-.184-.306-.552-.673-.859-.795l-.184.183c-1.657 1.957-3.805 3.486-5.462 3.486-1.411 0-2.271-.918-1.227-2.752l.245-.428c1.473.611 4.296.306 6.076-2.691l.307-.55c1.227-2.14.061-3.73-1.841-3.73-1.903 0-3.376.978-4.358 2.69l-2.27 3.853s-.062 0-.062-.061l-.184.183c-1.657 1.957-3.314 3.486-4.357 3.486-.491 0-.798-.367-.246-1.285l3.376-5.87c.982-1.773.061-3.057-1.228-3.057-.982 0-2.086.55-3.252 1.773l3.743-6.421h-2.393l-6.567 11.313c-.061-.061-.184-.122-.245-.184l-.185.184c-1.657 1.957-3.314 3.485-4.357 3.485-.491 0-.798-.366-.245-1.284l4.971-8.683h1.902l.675-1.101h-1.902l2.209-3.791h-2.332l-2.209 3.791h-2.087l-.675 1.101h2.148l-4.664 8.072c-.982 1.712-.307 3.302 1.595 3.302 1.166 0 2.394-.734 3.683-1.835l-.921 1.59h2.332l3.56-6.115c3.559-4.464 5.155-3.913 4.173-2.201l-3.007 5.259c-.982 1.712-.307 3.302 1.595 3.302 1.412 0 3.008-1.101 4.48-2.568 0 1.528 1.167 2.629 3.069 2.629Zm1.903-8.377c1.35-2.324 3.743-1.896 2.332.489l-.307.55c-1.105 1.896-2.639 1.835-3.498 1.529l1.473-2.568ZM222.9 180.879l-.184.184c-1.657 1.956-3.314 3.485-4.358 3.485-.491 0-.797-.367-.245-1.284l7.855-13.575h-2.332l-3.437 5.87c-.429-.673-1.166-1.223-2.148-1.223-1.227 0-3.007.979-3.989 2.691l-2.27 3.913c-.062 0-.123-.061-.123-.061l-.184.184c-1.657 1.956-3.314 3.485-4.358 3.485-.491 0-.797-.367-.245-1.284l3.375-5.87c.982-1.774.062-3.058-1.227-3.058-.982 0-2.087.55-3.253 1.712l.859-1.528h-2.332l-3.743 6.42c-.062-.061-.123-.122-.246-.122l-.184.183c-1.657 1.957-3.314 3.486-4.357 3.486-.491 0-.798-.367-.246-1.284l3.744-6.543h-1.166c.061-.979-.921-2.324-2.455-2.324-1.227 0-3.007.979-3.989 2.691l-2.271 3.852-.123.122c-1.657 1.957-3.314 3.486-4.357 3.486-.491 0-.798-.367-.245-1.284l2.332-4.036c.798-1.407.429-2.201-.307-3.119l-1.289-1.59c-.307-.428-.307-.917.123-1.345l-1.228-1.345c-1.35 1.162-1.411 2.507-.613 3.547l.184.244c-1.044 1.468-2.394 3.424-3.928 5.198l.184.183c-1.902 2.202-3.559 3.608-5.4 4.403l2.945-5.014h-2.27l-.246.428c-1.227 2.14-2.639 3.73-4.48 3.73-1.596 0-1.902-1.59-.491-3.975l.675-1.162c.43.062.859.123 1.35.123 8.285 0 12.275-11.068 4.971-11.068-1.288 0-2.823.917-3.866 2.69l-3.621 6.237c-1.35-.733-2.087-2.017-2.087-3.302 0-1.1.491-2.14 1.473-2.935l-.736-1.345c-1.657 1.162-2.394 2.752-2.394 4.342 0 1.834 1.044 3.607 2.946 4.586l-.675 1.223c-1.657 2.813-1.35 5.931 1.964 5.931a4.69 4.69 0 0 0 2.516-.734l-.613 1.04c-3.13.978-5.094 2.201-5.094 3.975 0 2.201 3.437 2.69 5.094-.184l1.779-3.057c2.394-.734 4.787-2.385 7.365-5.381-.062-.062-.062-.123-.123-.245 1.043-1.223 1.903-2.385 3.682-4.77l.307.367c.307.367.43.856.123 1.346l-2.455 4.28c-.982 1.712-.307 3.302 1.596 3.302 1.166 0 2.455-.734 3.682-1.834 0 1.039.675 1.834 2.025 1.834.921 0 2.087-.611 3.253-1.529.123.918.859 1.529 2.025 1.529 1.105 0 2.332-.673 3.498-1.712l-.859 1.467h2.332l3.56-6.176c3.559-4.464 5.155-3.852 4.112-2.14l-3.008 5.259c-.981 1.712-.306 3.302 1.596 3.302 1.227 0 2.578-.856 3.928-2.018-.123 1.162.614 2.018 2.025 2.018.921 0 2.087-.611 3.253-1.529.122.918.859 1.529 2.025 1.529 1.902 0 4.112-2.079 6.076-4.28-.246-.123-.675-.49-.982-.612Zm-47.808-8.683c.675-1.162 1.473-1.712 2.086-1.712 3.683 0 1.105 7.521-4.971 7.521h-.491l3.376-5.809Zm-4.971 17.489c-.491.856-1.289.733-1.289.122 0-.612.552-1.284 2.332-1.957l-1.043 1.835Zm24.364-8.439c-1.412 2.201-2.823 3.241-3.744 3.241-.491 0-.797-.367-.245-1.284l3.253-5.626c1.227-2.14 3.743-1.59 2.577.489l-1.841 3.18Zm22.523-.122c-1.411 2.323-2.823 3.363-3.805 3.363-.491 0-.798-.367-.245-1.284l3.252-5.626c1.228-2.14 3.744-1.59 2.578.489l-1.78 3.058ZM145.143 202.893l-.184.183c-1.657 1.957-3.314 3.485-4.358 3.485-.491 0-.798-.366-.245-1.284l3.375-5.87c.982-1.773.062-3.057-1.227-3.057-.982 0-2.087.55-3.253 1.712l.859-1.529h-2.332l-3.743 6.482c-.123-.061-.185-.122-.307-.184l-.184.184c-1.044 1.162-2.333 1.712-3.499 1.712l2.21-3.791c1.411-2.446.123-4.709-2.087-4.709-1.78 0-3.191.734-4.541 3.058l-1.166 1.957-.982 1.712c-.062-.061-.123-.061-.184-.123l-.184.184c-1.903 2.201-3.56 3.608-5.401 4.403l6.382-10.885h-2.332l-4.112 7.154c-1.779 1.652-3.191 2.569-3.62 2.385-.553-.244 0-1.1.306-1.59l4.542-7.888h-2.332l-3.744 6.421c-.061-.061-.123-.061-.184-.122l-.184.183c-1.657 1.957-3.314 3.485-4.357 3.485-.491 0-.798-.366-.246-1.284l3.376-5.87c.981-1.773.061-3.057-1.228-3.057-.982 0-2.087.55-3.253 1.712l.86-1.529h-2.332l-3.744 6.421c-.061-.061-.123-.123-.246-.123l-.184.184c-1.657 1.957-3.314 3.485-4.357 3.485-.491 0-.798-.367-.246-1.284l3.744-6.543h-1.35c.061-.978-.92-2.323-2.455-2.323-1.227 0-3.007.978-3.989 2.69l-2.394 4.158a5.655 5.655 0 0 0-.49-.305l-.185.183c-1.657 1.957-3.743 3.485-6.014 3.485-1.596 0-2.578-1.589-1.166-3.974l.675-1.162c.43.061.86.122 1.35.122 2.455 0 5.278-1.284 7.12-4.464.674-1.161.92-2.201.92-3.118 0-2.079-1.35-3.486-3.069-3.486-1.288 0-2.823.917-3.866 2.691l-3.621 6.237c-1.35-.734-2.087-2.018-2.087-3.302 0-1.101.491-2.14 1.473-2.935l-.736-1.345c-1.657 1.161-2.394 2.751-2.394 4.341 0 1.835 1.044 3.608 2.946 4.586l-.675 1.223c-1.657 2.813-.675 5.932 2.64 5.932 2.577 0 4.54-1.162 6.136-2.691-.49 1.468.246 2.691 1.903 2.691.92 0 2.086-.612 3.252-1.529.123.917.86 1.529 2.026 1.529 1.104 0 2.332-.673 3.498-1.712l-.86 1.467h2.333l3.559-6.176c3.56-4.464 5.155-3.852 4.112-2.14l-3.007 5.259c-.982 1.712-.307 3.302 1.596 3.302 1.227 0 2.638-.856 3.989-2.079-.307 1.284.306 2.079 1.473 2.079 1.104 0 2.393-.917 3.436-1.896l-1.288 2.202c-3.13.917-5.156 2.201-5.156 3.974 0 2.202 3.437 2.691 5.094-.183l1.78-3.058c1.964-.611 3.866-1.834 5.892-3.791-.307 3.241 3.989 3.975 6.628.673h.491c.859 0 2.025-.306 3.068-.918l-1.534 2.691h2.332l3.559-6.176c3.56-4.464 5.156-3.852 4.112-2.14l-3.007 5.259c-.982 1.712-.307 3.302 1.596 3.302 1.902 0 4.112-2.079 6.076-4.281-.062-.183-.491-.55-.798-.672Zm-57.935-8.684c.675-1.161 1.473-1.712 2.087-1.712.86 0 1.289.551 1.289 1.407 0 2.14-2.64 6.053-6.26 6.053h-.491l3.375-5.748Zm8.224 9.05c-1.411 2.202-2.823 3.241-3.743 3.241-.491 0-.798-.367-.246-1.284l3.253-5.626c1.227-2.14 3.743-1.589 2.577.49l-1.84 3.179Zm17.675 8.439c-.491.856-1.289.734-1.289.122 0-.611.553-1.284 2.332-1.956l-1.043 1.834Zm15.711-8.683h-.123c-.736 0-1.35.611-1.35 1.406 0 .306.061.551.246.795v.061c-1.105 1.896-3.744 1.529-2.394-.917l1.78-3.057 1.105-1.896c1.657-2.752 3.866-1.651 2.454.734l-1.718 2.874ZM199.088 203.688c-.123-.366-.552-.733-.859-.795l-.184.184c-.86.978-1.903 1.896-2.824 2.507.737-2.201.553-5.626 2.026-8.561l-1.719-.917c-.982 1.345-3.068 4.342-5.155 6.787l-.184.184c-1.657 1.957-3.314 3.485-4.357 3.485-.491 0-.982-.489-.982-1.589v-.979c1.657.184 3.375-.856 4.48-2.752l.614-1.1c2.148-3.73-1.351-4.953-3.744-2.752l3.314-5.748h-2.332l-6.628 11.496a1.873 1.873 0 0 0-.43-.306l-.184.184c-1.657 1.957-3.805 3.485-5.462 3.485-1.411 0-2.271-.917-1.227-2.751l2.393-4.159c1.35-2.323 3.744-1.895 2.332.49l-.307.55h1.903l.307-.55c1.227-2.141.061-3.73-1.841-3.73-1.903 0-3.376.978-4.358 2.69l-2.271 3.914c-.061 0-.122-.062-.122-.062l-.184.184c-1.657 1.957-3.314 3.485-4.358 3.485-.491 0-.798-.366-.245-1.284l4.971-8.683h-2.332l-4.112 7.216c-1.78 1.59-3.13 2.507-3.56 2.323-.552-.244 0-1.1.307-1.589l4.542-7.889h-2.332l-4.542 7.766c-.491.428-1.043.856-1.473 1.223.737-2.201.553-5.626 2.025-8.561l-1.718-.917c-.982 1.345-6.321 8.439-8.469 10.885.184.305.552.55.859.795 1.35-1.529 5.769-7.216 6.567-8.317-.921 2.385-.43 6.727-2.639 6.727-.798 0-1.105-.856-1.105-.856l-1.473.733s.43 1.896 2.578 1.896c.245 0 .429 0 .675-.061h.061c1.166-.184 2.332-.673 3.437-1.468 0 .918.552 1.529 1.534 1.529 1.289 0 2.701-1.162 3.805-2.201-.245 1.223.491 2.201 1.964 2.201 1.473 0 3.069-1.162 4.603-2.691 0 1.529 1.227 2.691 3.13 2.691 1.902 0 3.744-1.04 5.401-2.446l-1.289 2.263h2.332l2.639-4.587v1.835c0 1.957.368 2.996 2.271 2.996 1.902 0 4.111-2.079 6.075-4.28 1.351-1.529 2.455-3.119 3.314-4.22-.92 2.385-.429 6.727-2.639 6.727-.797 0-1.104-.856-1.104-.856l-1.473.734s.429 1.895 2.577 1.895c.246 0 .43 0 .676-.061h.061c2.332-.428 4.725-2.324 6.444-4.342Zm-15.466-1.834.675-1.162c2.701-3.73 4.542-2.69 3.683-1.284l-1.105 1.896c-.675 1.223-2.7 2.079-3.253.55ZM199.026 205.278a1.36 1.36 0 0 0-1.35 1.345c0 .734.553 1.346 1.35 1.346.737 0 1.351-.551 1.351-1.346a1.36 1.36 0 0 0-1.351-1.345ZM199.149 204.36h2.332l7.304-12.658h-2.333l-7.303 12.658ZM49.22 169.751c0 .183-.062.366-.123.55a1.332 1.332 0 0 1-.307.489 3.408 3.408 0 0 1-.491.367c-.184.061-.43.122-.675.122-.307 0-.552-.061-.798-.183-.245-.122-.49-.245-.675-.428-.184-.184-.245-.367-.368-.612-.062-.244-.123-.489-.123-.795 0-.55.123-.978.307-1.467.184-.428.43-.856.798-1.162.123-.122.307-.306.49-.428.185-.122.369-.245.553-.306.184-.061.307-.183.43-.244.122-.062.184-.062.245-.123l.86 1.223c-.123.061-.308.123-.492.245-.184.061-.368.183-.552.306-.184.122-.307.305-.43.489a1.029 1.029 0 0 0-.184.611c.43 0 .737.123 1.044.367.368.184.49.551.49.979Zm4.848 0c0 .183-.061.366-.123.55a1.33 1.33 0 0 1-.307.489 3.408 3.408 0 0 1-.49.367c-.185.061-.43.122-.676.122-.307 0-.552-.061-.798-.183-.245-.122-.49-.245-.675-.428-.122-.184-.245-.367-.368-.612-.061-.244-.123-.489-.123-.795 0-.55.123-.978.307-1.467.184-.428.43-.856.798-1.162.123-.122.307-.306.491-.428s.368-.245.552-.306c.184-.061.307-.183.43-.244.123-.062.184-.062.245-.123l.86 1.223c-.123.061-.307.123-.491.245-.184.061-.369.183-.553.306-.184.122-.307.305-.43.489a1.03 1.03 0 0 0-.183.611c.43 0 .736.123 1.043.367.307.184.49.551.49.979ZM216.763 205.767c0-.183.061-.367.122-.55.062-.184.184-.367.307-.489.123-.123.307-.245.491-.367a2.22 2.22 0 0 1 .675-.122c.307 0 .553.061.798.183.246.122.491.245.675.428.184.183.246.367.368.612.062.244.123.489.123.794 0 .551-.123.979-.307 1.468-.184.428-.429.856-.798 1.162a3.414 3.414 0 0 1-.491.428c-.184.122-.368.244-.552.306-.184.061-.307.183-.429.244-.123.061-.185.061-.246.123l-.859-1.223c.123-.062.307-.123.491-.245.184-.061.368-.183.552-.306.184-.122.307-.306.43-.489s.184-.367.184-.611c-.43 0-.737-.123-1.043-.367-.307-.184-.491-.551-.491-.979Zm-4.787 0c0-.183.061-.367.122-.55.062-.184.184-.367.307-.489.123-.123.307-.245.491-.367a2.22 2.22 0 0 1 .675-.122c.307 0 .553.061.798.183.246.122.491.245.675.428.123.183.246.367.368.612.062.244.123.489.123.794 0 .551-.123.979-.307 1.468-.184.428-.429.856-.798 1.162-.122.122-.306.306-.49.428-.185.122-.369.244-.553.306-.184.061-.307.183-.429.244-.123.061-.185.061-.246.123l-.859-1.223c.184-.062.307-.123.491-.245.184-.061.368-.183.552-.306.184-.122.307-.306.43-.489s.184-.367.184-.611c-.43 0-.737-.123-1.043-.367-.369-.184-.491-.551-.491-.979Z" fill="#fff"/></g></symbol><symbol id="separator"><g fill="none"><path fill="#D6D6D6" d="M0 0h284v1H0z"/></g></symbol><symbol id="tick"><g fill="none"><path d="M21.805 1.307 20.76.222c-.285-.296-.856-.296-1.141 0L8.298 11.957 2.403 5.843c-.286-.296-.856-.296-1.142 0L.214 6.928c-.285.295-.285.887 0 1.183l7.419 7.692c.19.197.38.197.57.197.191 0 .381-.099.571-.197L21.615 2.49c.476-.296.476-.789.19-1.183Z" fill="#333"/></g></symbol></svg>